<svg xmlns="http://www.w3.org/2000/svg" fill="none" viewBox="0 0 290 90"><rect width="290" height="90" fill="#F7F7F7" fill-opacity=".75" rx="20"/><g clip-path="url(#clip0)"><path fill="#0D7377" fill-rule="evenodd" d="M23.7 72.15C12.58 68.85-19.48 54.78 16.85 8 36.5 21.34 44.08 33.07 45.48 42.76c-9.4 3.37-15.87 9.91-15.07 21.75-5.11-12.17-9.13-29-10.85-39.5-.87 12.26.94 34.07 4.14 47.14z" clip-rule="evenodd"/><path fill="#0D7377" fill-rule="evenodd" d="M36.28 75.1c-2.7-7.53-8.33-31.98 33.67-30.63 1.23 38.4-19.11 36.99-28.35 34.4a69.5 69.5 0 0114.98-19.84 78.61 78.61 0 00-20.3 16.06z" clip-rule="evenodd"/><path fill="#323232" d="M94.67 34.86l2.15-5.14 2.34-4.86c.18-.38 1.68-3.09 2.15-3.83.37-.56 2.05-3.27 2.43-3.93 4.1-5.98 14.01-17.1 22.24-17.1 2.9 0 4.76 1.87 4.76 4.67 0 3.37-2.33 7.38-4.3 10l-2.42 3.27-3.27 3.65-4.4 4.58-4.58 4.3-8.78 7.28-.1.1-.93 3.17-1.21 5.14a28.02 28.02 0 00-.84 6.92c0 2.43.37 6.07 3.64 6.07 2.15 0 4.4-1.68 5.98-2.99.47-.46 2.15-1.87 2.34-2.05l3.36-3.37 5.8-6.63 6.54-8.41.46-.47c.1-.1.2 0 .28 0 .75 0 1.5.37 1.5 1.22 0 .18 0 .28-.1.37l-6.82 9.06-6.16 7.1-4.3 4.21c-.19.28-1.97 1.78-2.43 2.24-3.37 2.71-8.13 6.17-12.8 6.17-5.61 0-7.2-5.33-7.2-10.1 0-4.48.93-9.43 2.34-13.73l2.33-6.91zm22.06-25.52a42.32 42.32 0 00-5.7 8.32l-2.34 4.49c-.37.75-3.64 8.6-3.64 9.06v.1l6.54-5.33 5.14-4.67 3.36-3.46c.28-.28 1.96-2.34 2.43-3 .19-.18 1.4-1.86 1.87-2.42 1.12-1.68 3.18-5.23 3.18-7.48 0-1.21-.66-1.96-1.78-1.96-2.43 0-5.89 3-7.38 4.49-.28.28-1.4 1.58-1.68 1.86zm7.22 44.11c0-4.2 2.43-8.69 4.58-12.15 3.46-5.42 10.47-14.1 17.75-14.1 3.46 0 4.86 2.52 4.86 5.79 0 4.2-2.24 8.5-4.2 12.15a6.8 6.8 0 002.7-.66c4.3-1.59 7.86-5.04 10.38-8.69l.1-.1c1.12 0 1.49.2 1.86 1.4-.18.38-.93 1.32-.93 1.41-.1.1-.66.84-.84 1.03-3.65 4.3-9.16 8.22-14.95 8.22v.1c-2.8 3.73-9.72 12.33-14.86 12.33-4.11 0-6.45-2.62-6.45-6.73zm17.1-14.01c0 1.77.28 4.1 1.96 5.23.28.1.66.37 1.03.37 2.15-3.17 4.67-8.22 4.67-12.15 0-1.68-.65-3.27-2.52-3.27-2.62 0-4.4 4.3-4.76 6.36a14.03 14.03 0 00-.38 3.46zm-8.97 14.48c0 .75.19 1.5 1.03 1.5 1.87 0 3.74-1.69 4.86-2.9.28-.19 1.3-1.22 1.5-1.5.27-.37 1.86-2.24 2.24-2.61.09-.19.74-1.03.84-1.12 0-.1-1.22-.66-1.4-.75-2.06-1.31-3.09-3.46-3.56-5.89v.1c-.09 0-.74 1.12-1.02 1.58-1.6 2.71-4.49 8.32-4.49 11.59zM155 44.67l.1-.84c1.03-7.76 5.14-13.37 12.15-16.54 4.3 2.24 9.15 4.1 14.1 4.1 1.03 0 2.06-.18 3.09-.18v.1c-.28.18-1.22 1.4-1.4 1.68-.28.28-.94 1.21-1.03 1.3l-2.24 3.56-5.89 11.02-1.68 3.84-2.06 5.42c-.28.65-.37 1.4-.37 2.14 0 .66.1 1.13.84 1.13 1.4 0 3.18-1.4 4.11-2.25.38-.18 1.68-1.4 1.96-1.68.56-.47 3-2.8 3.46-3.36.84-.84 3.46-3.74 3.83-4.11l9.63-11.78v-.19l.1-.28h.37c.37 0 .74 0 1.12.1.18.18.56.56.56.84v.93h-.28l-4.2 5.42-7.67 8.97-4.2 4.3c-.1.1-1.13 1.03-1.4 1.31-2.9 2.43-7.2 6.17-11.32 6.17-4.3 0-5.5-3.83-5.5-7.48 0-2.9.92-5.7 1.95-8.31.28-.57 1.4-3 1.69-3.46.28-.66 1.5-2.8 1.68-3.18l4.67-7.29v-.1s-.37-.18-.56-.37a7.8 7.8 0 00-4.3-1.58c-4.67 0-8.13 5.79-9.44 9.53l-.65 1.77a1.6 1.6 0 01-1.22-.65zm34.51 7.29c0-10.47 10.47-22.43 21.22-22.43 2.7 0 5.6 1.12 5.6 4.3 0 6.54-10 10.37-15.79 11.03a19.85 19.85 0 00-.84 5.32c0 2.62.84 6.08 4.11 6.08 2.8 0 5.7-2.15 7.76-3.84.37-.37 1.77-1.58 1.87-1.68l3.55-3.55 4.95-5.32 5.6-7.1c.1-.1.29-.29.47-.38.57 0 1.69.19 1.69 1.03l-.28.84-3.65 4.76-5.32 6.27-4.86 4.95c-.19.28-1.78 1.59-2.25 2.05-3.92 3.27-8.6 6.36-13.92 6.36-5.98 0-9.9-2.52-9.9-8.7zm10.66-10.28v.1c.37-.1 2.05-.48 2.43-.57.37-.19 1.87-.56 2.15-.65.37-.19 1.77-.75 2.15-.84 1.96-.85 5.7-3 5.7-5.61 0-.94-.56-1.59-1.6-1.59-3.92 0-8.5 3.27-10.09 6.73-.28.75-.74 1.68-.74 2.43zm32.08-12.24v-.19s.37-.47.65-.75c3 .56 5.7 2.43 5.7 5.7 0 .47-.09 1.03-.28 1.4l-2.9 6.73c.29-.37 1.5-1.96 1.78-2.24.47-.65 2.9-3.55 3.46-4.11 2.24-2.8 7.1-7.3 10.56-7.3 2.8 0 4.11 2.25 4.11 4.87 0 2.05-.65 4.02-1.68 5.89l-4.02 7.66c.1-.19.75-.84.84-.94l9.44-9.43 3.36-2.9c.19-.19 1.78-1.4 2.25-1.78 2.24-1.5 4.95-3.27 7.75-3.27 2.15 0 3.65 1.03 3.65 3.27 0 1.69-1.97 7.85-3.27 9.16l-5.52 9.35c-1.12 1.96-2.15 4.48-2.15 6.72 0 .85 0 2.25.94 2.62h.28c2.62 0 5.23-2.7 6.73-4.48l1.58-1.69c.47-.65 2.16-2.8 2.34-3.08l9.16-13.36c.37-.56.65-.94.65-1.6h.47c.75 0 1.22 0 1.68.76.1.09.19.28.19.46 0 .1 0 .1-.1.19-.18.56-1.02 1.77-1.02 1.87l-5.7 8.88-5.51 7.57c-2.34 3.55-8.04 8.69-12.25 8.69-4.67 0-7.29-2.71-7.29-7.3 0-3.08 1.13-5.97 2.53-8.59l4.2-7.85c.38-.75.84-1.59.84-2.43 0-.1 0-.28-.09-.37h-.19c-1.21 0-4.2 1.77-5.23 2.8-.65.56-2.52 2.15-2.71 2.34l-4.67 4.58-6.08 6.63-4.01 5.51c-.85 1.13-1.97 1.5-3.37 1.5-1.87 0-4.95 0-4.95-2.71 0-.28 0-.56.1-.75l9.71-18.5a7.1 7.1 0 00.56-1.5c-1.87.75-3.46 2.53-4.77 3.93-.56.65-2.05 2.33-2.24 2.52l-3.27 4.11-2.8 4.2a17.3 17.3 0 00-1.5 2.62l-2.05 5.33c0 .1 0 .1-.1.19-.84.47-1.77.84-2.8.84a7.44 7.44 0 01-5.42-2.52v-.28c0-2.34 2.15-8.7 3.08-10.75l2.25-5.14 7.1-13.08zm17.29 17.66v.1c.09 0 .09-.1 0-.1zm-14.11-4.67v-.1c-.1 0-.1.1 0 .1z"/><path fill="#0D7377" d="M91.28 77.87L90 76.32h2.07l7.04 8.38v-8.38h1.62v10.96h-1.6l-6.28-7.53v7.53h-1.57v-9.41zm18.17-.39l-.6-1.35h1.76l5.28 11.15h-1.8l-.72-1.6h-3.33a7.4 7.4 0 00-1.7.18 4 4 0 00-1.1.43c-.26.15-.43.31-.52.48l-.28.51h-1.74l4.75-9.8zm1.17 6.59h2.03l-2.4-4.63-2.42 5.24c.22-.18.55-.33.99-.44a8 8 0 011.8-.17zm17.54-6.13h-3.86v9.34h-1.56v-9.34h-3.9v-1.62h9.32v1.62zm8.9 9.6a6.04 6.04 0 01-2.65-.54 3.8 3.8 0 01-1.69-1.55 4.8 4.8 0 01-.58-2.43v-6.7h1.59v6.7c0 .94.29 1.66.87 2.16.57.5 1.4.75 2.46.75 1.07 0 1.9-.25 2.47-.75.58-.5.87-1.22.87-2.16v-6.7h1.59v6.7c0 .94-.2 1.75-.58 2.43a3.8 3.8 0 01-1.7 1.55c-.73.36-1.62.53-2.65.53zm11.68-9.62v3.65c.3-.18.64-.3 1.01-.35.28-.05.63-.08 1.06-.08h2.09c.58 0 1.03-.13 1.35-.4.34-.28.51-.7.51-1.27 0-.54-.18-.94-.54-1.2a2.23 2.23 0 00-1.32-.35h-4.16zm4.69 7.63l-1.34-2.8h-1.28c-.4 0-.75.02-1.06.07-.37.07-.7.18-1.01.35v4.11h-1.6V76.32h5.76c.67 0 1.27.13 1.8.39.51.25.91.61 1.2 1.08.3.5.45 1.09.45 1.77 0 .82-.22 1.5-.66 2.02-.44.53-1.06.9-1.87 1.1l.86 1.75c.24.37.43.62.57.77.17.18.32.3.48.37.15.07.35.1.6.1h.15l.36-.02v1.63a9.8 9.8 0 01-1.27-.05 2.87 2.87 0 01-1.17-.46c-.39-.27-.7-.68-.97-1.22zm9.72-2.66v2.8h6.76v1.6h-8.36V76.31h7.71v1.62h-6.11v3.32c.3-.18.64-.3 1.01-.35.28-.05.63-.08 1.06-.08h2.4v1.64h-2.4c-.4 0-.75.02-1.06.07-.37.07-.7.18-1.01.35zm12.34-6.76l-.34 3.54h-1.01l-.33-3.54h1.68zm13.08 7.82c0 .71-.21 1.35-.64 1.9-.42.54-1 .95-1.74 1.24-.74.3-1.58.44-2.5.44a5.78 5.78 0 01-4.51-2.25l1.14-1.07a4.26 4.26 0 003.36 1.72c.57 0 1.09-.07 1.56-.2.52-.16.92-.38 1.2-.66.33-.32.49-.69.49-1.12 0-.52-.16-.91-.49-1.18a2.38 2.38 0 00-1.22-.44c-.3-.04-.82-.06-1.54-.06a5.24 5.24 0 01-3-.72 2.41 2.41 0 01-1.04-2.11 3 3 0 01.52-1.68c.35-.53.83-.95 1.44-1.26.62-.33 1.32-.5 2.08-.5.86 0 1.64.13 2.34.4a6.2 6.2 0 012.07 1.33l-1 1.18a6.43 6.43 0 00-1.63-1 4.9 4.9 0 00-1.78-.3c-.4 0-.77.09-1.12.26-.35.16-.63.39-.83.66-.2.28-.31.58-.31.9 0 .84.78 1.26 2.34 1.26 1.24 0 2.22.12 2.95.38.69.24 1.17.62 1.47 1.12.26.44.4 1.02.4 1.76zm12.06-6.01v3.35c.3-.18.65-.3 1.03-.37.28-.05.63-.07 1.06-.07h1.88c.5 0 .9-.13 1.2-.38.28-.26.43-.64.43-1.13 0-.94-.55-1.4-1.63-1.4h-3.97zm0 4.98v2.76h4.13c.32 0 .63-.06.92-.17.33-.12.58-.3.77-.52.21-.26.32-.57.32-.9 0-.6-.23-1.02-.69-1.29a2.9 2.9 0 00-1.48-.32h-1.88a4.4 4.4 0 00-2.1.44zm7.73 1.37a2.72 2.72 0 01-1.99 2.7c-.53.2-1.13.3-1.77.3h-5.56V76.31h5.56c.62 0 1.18.12 1.66.36.49.23.87.57 1.14 1.01.29.46.43 1 .43 1.63 0 .48-.09.9-.26 1.29-.17.37-.41.66-.72.87.42.2.76.52 1.04.97.31.52.47 1.13.47 1.84zm12.4 3h-7.69V76.31h1.6v9.36h6.09v1.6zm13.45-5.56a4.04 4.04 0 00-2.17-3.59 4.5 4.5 0 00-2.15-.52c-.8 0-1.54.18-2.2.54a4 4 0 00-2.12 3.67c0 .77.2 1.47.62 2.12a4.44 4.44 0 007.44-.07c.38-.66.58-1.38.58-2.15zm1.59.09c0 1.06-.28 2.03-.83 2.92a5.93 5.93 0 01-5.08 2.8 5.86 5.86 0 01-5.9-5.9c0-1.05.29-2.01.84-2.9a6 6 0 0110.15.1c.55.92.82 1.91.82 2.98zm13.95-4.09l-1.03 1.2a4.5 4.5 0 00-3.2-1.32c-.8 0-1.54.19-2.2.55a4 4 0 00-2.12 3.67c0 .77.2 1.47.62 2.12a4.43 4.43 0 006.6.93v-2H247l-.69-1.59H250v4.26a6 6 0 01-7.48 1.19 5.86 5.86 0 01-2.9-5.1c0-1.05.29-2.01.84-2.9a6 6 0 019.29-1.01z"/></g><defs><clipPath id="clip0"><rect width="290" height="87.53" fill="#fff" rx="20"/></clipPath></defs></svg>